<svg width="100" height="100" viewBox="0 0 100 100" xmlns="http://www.w3.org/2000/svg">
    <path
        fill="#3FA7FC"
        d=" M81.819,71.145 v-9.957 c5.431 -3.15,9.089 -9.008,9.089 -15.734 c0 -10.039 -8.14 -18.18 -18.182 -18.18 c-3.638,0 -7.007,1.091 -9.849,2.934 C60.081,18.123,49.298,9.09,36.363,9.09 C21.3,9.09,9.092,21.303,9.092,36.366 c0,8.067,3.524,15.295,9.092,20.285 v11.174 C7.326,61.532,0,49.818,0,36.366 C0,16.282,16.282,0,36.363,0 C50.01,0,61.887,7.528,68.105,18.648 c1.51 -0.257,3.039 -0.466,4.621 -0.466 C87.79,18.182,100,30.395,100,45.454 C100,57.326,92.4,67.394,81.819,71.145 z"
    />
    <circle fill="#79CBFD" cx="32" cy="59" r="5" />
    <circle fill="#79CBFD" cx="36" cy="79" r="5" />
    <circle fill="#3FA7FC" cx="50" cy="66" r="5" />
    <circle fill="#79CBFD" cx="60" cy="84" r="5" />
    <circle fill="#79CBFD" cx="68" cy="64" r="5" />
</svg>
