<?xml version="1.0" encoding="UTF-8"?>
<svg width="835px" height="439px" viewBox="0 0 835 439" version="1.1" xmlns="http://www.w3.org/2000/svg" xmlns:xlink="http://www.w3.org/1999/xlink">
    <!-- Generator: Sketch 60.1 (88133) - https://sketch.com -->
    <title>Crostini Icon</title>
    <desc>Created with Sketch.</desc>
    <g id="Page-1" stroke="none" stroke-width="1" fill="none" fill-rule="evenodd">
        <g id="Artboard" transform="translate(-170.000000, -38.000000)">
            <g id="Crostini-Icon" transform="translate(169.000000, 38.000000)">
                <g fill-rule="nonzero" id="Group">
                    <g transform="translate(0.792985, 0.000000)">
                        <path d="M761.985557,83.2510316 C752.440853,83.2510316 745.017194,75.8273728 745.017194,66.2826685 C745.017194,56.7379642 752.440853,49.3143054 761.985557,49.3143054 C776.302613,49.3143054 788.498624,51.9656121 798.57359,56.7379642 C812.890646,63.1011004 822.435351,73.7063274 827.737964,87.4931224 C832.510316,100.219395 832.510316,115.066713 828.268226,130.974553 C823.495873,149.5337 812.890646,169.683631 796.452545,191.424347 C770.469739,224.830812 733.881706,255.055708 696.23315,276.796424 C657.524072,299.0674 617.224209,312.854195 583.817744,312.854195 L74.7668501,312.854195 C63.6313618,312.854195 54.0866575,311.263411 45.6024759,308.612105 C32.3459422,304.370014 22.801238,296.946355 15.9078404,287.401651 C9.01444292,277.856946 5.30261348,266.191197 5.30261348,252.934663 C5.30261348,243.92022 6.89339752,234.375516 10.0749656,224.30055 C12.7262724,215.286107 22.2709766,210.513755 31.2854195,213.165062 C40.2998624,215.816369 45.0722146,225.361073 42.4209078,234.375516 C40.2998624,241.268913 39.2393398,247.101788 39.2393398,252.404402 C39.2393398,258.237276 40.8301238,263.53989 43.4814305,267.251719 C46.1327373,270.963549 50.3748281,274.145117 56.2077029,275.735901 C61.5103164,277.326685 67.3431912,278.387208 74.7668501,278.387208 L583.817744,278.387208 C611.391334,278.387208 645.858322,266.191197 679.264787,247.101788 C713.731774,227.482118 746.607978,199.908528 769.409216,170.213893 C783.196011,152.715268 791.680193,136.277166 795.392022,122.490371 C798.043329,112.945667 798.043329,104.991747 795.392022,98.6286107 C793.270977,93.3259972 789.559147,89.6141678 784.256534,86.9628611 C778.423659,84.3115543 771,82.7207703 761.455296,82.7207703 L761.985557,83.2510316 Z" id="Path" fill="#DC9A1F"></path>
                        <path d="M798.043329,107.112792 C798.043329,97.568088 805.466988,90.1444292 815.011692,90.1444292 C824.556396,90.1444292 831.980055,97.568088 831.980055,107.112792 C831.980055,149.003439 833.040578,178.167813 834.1011,200.43879 C836.752407,272.024072 837.282669,282.099037 796.982806,334.064649 C772.060523,366.410591 738.123796,390.802613 703.656809,407.770977 C661.235901,428.451169 616.693948,438.526135 584.348006,438.526135 L75.2971114,438.526135 C56.7379642,438.526135 41.8906465,434.284044 30.7551582,426.860385 C17.4986245,418.376204 9.54470426,405.649931 6.89339752,390.272352 C4.24209078,375.955296 4.77235213,356.865887 5.83287483,328.231774 C6.36313618,310.202889 6.89339752,288.462173 6.89339752,261.949106 C6.89339752,252.404402 14.3170564,244.980743 23.8617607,244.980743 C33.4064649,244.980743 40.8301238,252.404402 40.8301238,261.949106 C40.8301238,288.992435 40.2998624,310.73315 39.7696011,329.292297 C39.2393398,355.805365 38.7090784,373.83425 40.2998624,384.439477 C41.3603851,390.272352 44.5419532,395.044704 49.3143054,398.226272 C55.1471802,401.938102 64.1616231,404.059147 75.2971114,404.059147 L584.348006,404.059147 C612.451857,404.059147 651.691197,395.044704 688.809491,377.015818 C719.564649,362.168501 748.729023,340.958047 770.469739,312.854195 C802.815681,270.963549 802.815681,262.479367 800.164374,201.499312 C799.103851,177.637552 798.043329,146.882393 798.043329,107.112792 Z" id="Path" fill="#DC9A1F"></path>
                        <g fill="#D14946">
                            <g transform="translate(361.107978, 0.000000)">
                                <g>
                                    <path d="M143.700825,57.2682256 C162.790234,35.5275103 197.257221,19.6196699 234.905777,10.0749656 C275.20564,1.52308721e-14 319.747593,-3.18156809 351.563274,3.71182944 C368.001376,6.89339752 381.257909,12.7262724 391.332875,20.6801926 C401.40784,28.6341128 407.770977,38.1788171 409.892022,49.3143054 C412.013067,59.9195323 410.422283,71.585282 404.059147,83.2510316 C397.696011,95.4470426 386.560523,108.173315 370.652682,119.839065 C351.033012,134.156121 335.125172,146.882393 319.217331,159.078404 L318.68707,159.608666 C303.839752,171.274415 288.462173,184.000688 270.433287,198.848006 C244.980743,220.058459 208.922971,236.496561 171.804677,246.041265 C134.156121,255.58597 94.9167813,258.237276 63.6313618,251.87414 C44.0116919,247.63205 28.1038514,240.208391 16.9683631,230.133425 C8.48418157,222.179505 2.65130674,212.634801 1.0605227,202.029574 C-1.0605227,191.424347 1.0605227,180.288858 7.42365887,169.683631 C14.3170564,157.48762 27.0433287,145.821871 46.1327373,135.216644 C51.9656121,132.035076 57.2682256,128.853508 62.0405777,126.202201 C87.4931224,112.415406 99.1588721,105.522008 107.112792,99.6891334 C113.475928,94.9167813 117.718019,89.6141678 125.671939,79.5392022 C130.444292,73.7063274 136.277166,66.8129298 143.700825,58.3287483 C143.700825,58.3287483 143.700825,58.3287483 144.231087,57.7984869 L143.700825,57.2682256 Z M241.268913,34.4669876 C207.862448,42.9511692 178.167813,56.7379642 162.790234,74.2365887 L162.790234,74.2365887 C154.836314,83.2510316 149.5337,89.6141678 145.291609,95.4470426 C135.746905,106.582531 130.974553,112.945667 122.490371,119.308803 C112.945667,126.732462 100.749656,133.62586 74.2365887,147.942916 C69.4642366,150.594223 64.1616231,153.775791 58.3287483,156.957359 C43.4814305,164.911279 33.9367263,173.925722 29.1643741,181.879642 C25.9828061,187.182256 24.9222834,192.484869 25.9828061,197.257221 C27.0433287,202.029574 29.6946355,206.801926 34.4669876,211.044017 C41.8906465,217.937414 53.5563961,223.770289 68.4037139,226.951857 C95.977304,232.784732 130.974553,230.133425 165.441541,221.118982 C199.378267,212.634801 231.724209,197.787483 253.995186,179.228336 C270.963549,165.441541 286.341128,152.715268 302.77923,139.458735 L303.309491,138.928473 C319.747593,126.202201 336.185695,113.475928 355.275103,99.1588721 C368.001376,89.6141678 377.015818,80.0694635 381.257909,71.0550206 C384.439477,64.6918845 385.5,58.8590096 384.439477,53.5563961 C383.378955,48.784044 380.197387,44.0116919 375.425034,39.7696011 C369.061898,34.4669876 358.986933,30.7551582 346.26066,28.1038514 C318.156809,22.2709766 277.856946,24.9222834 240.738652,34.4669876 L241.268913,34.4669876 Z" id="Shape"></path>
                                    <path d="M89.6141678,148.473177 C94.9167813,143.700825 102.870702,143.700825 107.643054,149.003439 C112.415406,154.306052 112.415406,162.259972 107.112792,167.032325 C102.870702,171.274415 100.219395,174.986245 99.6891334,178.167813 C99.6891334,179.228336 99.6891334,179.758597 99.6891334,180.81912 C99.6891334,181.879642 100.219395,182.409904 101.279917,183.470426 C103.931224,186.121733 109.233838,188.77304 116.657497,190.363824 C127.792985,192.484869 141.57978,192.484869 155.896836,189.833563 C170.213893,187.182256 185.06121,182.409904 197.257221,176.046768 C203.620358,172.865199 211.044017,174.986245 214.225585,181.349381 C217.407153,187.712517 215.286107,195.136176 208.922971,198.317744 C194.075653,206.271664 176.577029,211.574278 159.608666,214.755846 C142.640303,217.937414 125.141678,217.937414 110.824622,214.755846 C98.0983494,212.104539 88.5536451,207.332187 82.1905089,200.969051 C78.4786795,197.257221 75.8273728,193.015131 74.7668501,188.242779 C73.176066,183.470426 73.176066,178.698074 74.2365887,173.395461 C75.8273728,165.441541 80.5997249,156.957359 89.0839065,149.003439 L89.6141678,148.473177 Z" id="Path"></path>
                                    <path d="M213.165062,83.2510316 C207.332187,86.9628611 199.378267,85.372077 195.666437,79.5392022 C191.954608,73.7063274 193.545392,65.7524072 199.378267,62.0405777 C214.225585,51.9656121 233.314993,44.5419532 252.404402,40.8301238 C271.49381,36.588033 291.11348,36.0577717 307.551582,39.2393398 C317.096286,41.3603851 325.580468,44.5419532 331.413343,49.3143054 C336.715956,53.0261348 340.427785,57.7984869 342.548831,63.1011004 C344.669876,68.9339752 345.730399,74.7668501 344.139615,81.1299862 C343.079092,86.4325997 340.427785,92.2654746 336.185695,97.568088 C331.943604,103.400963 323.989684,104.461486 318.68707,100.219395 C312.854195,95.977304 311.793673,88.0233838 316.035763,82.7207703 C317.626547,80.0694635 318.68707,77.9484182 319.217331,76.3576341 C319.217331,75.2971114 319.217331,74.2365887 319.217331,73.176066 C318.68707,72.1155433 317.626547,71.0550206 316.035763,69.9944979 C312.854195,67.8734525 308.612105,65.7524072 302.248968,64.6918845 C289.522696,62.0405777 273.614856,62.5708391 257.176754,66.2826685 C240.738652,69.9944979 224.830812,75.8273728 212.634801,83.781293 L213.165062,83.2510316 Z" id="Path"></path>
                                </g>
                                <path d="M167.562586,106.05227 C157.48762,103.931224 149.003439,114.536451 153.24553,123.550894 C154.836314,127.262724 158.017882,129.91403 162.259972,130.974553 L187.182256,136.277166 C194.075653,137.86795 200.43879,133.095598 202.029574,126.732462 C201.499312,128.853508 202.029574,131.504814 203.090096,134.156121 C204.68088,137.86795 207.862448,140.519257 212.104539,141.57978 L237.026823,146.882393 C247.101788,149.003439 255.58597,138.398212 251.343879,129.383769 C249.753095,125.671939 246.571527,123.020633 242.329436,121.96011 L217.407153,116.657497 C210.513755,115.066713 204.150619,119.839065 202.559835,126.202201 C203.090096,124.081155 202.559835,121.429849 201.499312,118.778542 C199.908528,115.066713 196.72696,112.415406 192.484869,111.354883 L167.562586,106.05227 Z" id="Path"></path>
                            </g>
                            <g transform="translate(173.395461, 0.000000)">
                                <g>
                                    <path d="M144.761348,57.2682256 C163.850757,35.5275103 198.317744,19.6196699 235.9663,10.0749656 C276.266162,1.5237811e-14 320.808116,-3.18156809 352.623796,3.71182944 C362.168501,5.83287483 371.182944,8.48418157 378.076341,12.196011 C386.030261,15.9078404 392.923659,20.6801926 397.696011,25.9828061 C402.468363,30.7551582 402.468363,39.2393398 397.696011,44.0116919 C396.635488,45.0722146 395.044704,46.1327373 393.45392,46.6629986 L393.45392,46.6629986 C383.909216,50.9050894 374.894773,55.1471802 366.940853,60.4497937 L366.410591,60.980055 C359.517194,65.2221458 354.21458,69.9944979 349.442228,75.2971114 L349.442228,75.2971114 C341.488308,84.3115543 336.185695,90.6746905 331.943604,96.5075653 C322.3989,107.643054 317.626547,114.00619 309.142366,120.369326 C299.597662,127.792985 287.401651,134.686382 260.888583,149.003439 C256.116231,151.654746 250.813618,154.836314 244.980743,158.017882 C235.9663,162.790234 228.542641,168.092847 223.240028,173.395461 L222.709766,173.925722 C216.876891,179.758597 213.695323,185.591472 212.634801,190.894085 C211.574278,195.666437 212.634801,200.43879 214.755846,204.68088 C215.816369,206.801926 217.937414,208.922971 220.058459,211.044017 C224.830812,215.816369 224.830812,224.30055 220.058459,229.072902 C218.467675,230.663686 216.876891,231.724209 215.286107,232.25447 C190.894085,242.859697 163.320495,249.753095 137.337689,253.464924 C110.824622,257.176754 85.372077,257.176754 63.6313618,252.404402 C44.0116919,248.162311 28.1038514,240.738652 16.9683631,230.663686 C8.48418157,222.709766 2.65130674,213.165062 1.0605227,202.559835 C-1.0605227,191.954608 1.0605227,180.81912 7.42365887,170.213893 C14.3170564,158.017882 27.0433287,146.352132 46.1327373,135.746905 C51.9656121,132.565337 57.2682256,129.383769 62.0405777,126.732462 C87.4931224,112.945667 99.1588721,106.05227 107.112792,100.219395 C113.475928,95.4470426 117.718019,90.1444292 125.671939,80.0694635 C130.444292,74.2365887 136.277166,67.3431912 143.700825,58.8590096 C143.700825,58.8590096 143.700825,58.8590096 144.231087,58.3287483 L144.761348,57.2682256 Z M242.329436,34.4669876 C208.922971,42.9511692 179.228336,56.7379642 163.850757,74.2365887 L163.850757,74.2365887 C155.896836,83.2510316 150.594223,89.6141678 146.352132,95.4470426 C136.807428,106.582531 132.035076,112.945667 123.550894,119.308803 C114.00619,126.732462 101.810179,133.62586 75.2971114,147.942916 C70.5247593,150.594223 65.2221458,153.775791 59.389271,156.957359 C44.5419532,164.911279 34.997249,173.925722 30.2248968,181.879642 C27.0433287,187.182256 25.9828061,192.484869 27.0433287,197.257221 C28.1038514,202.029574 30.7551582,206.801926 35.5275103,211.044017 C42.9511692,217.937414 54.6169188,223.770289 69.4642366,226.951857 C88.0233838,230.663686 110.824622,230.663686 134.686382,227.482118 C153.775791,224.830812 173.925722,220.058459 192.484869,213.165062 C188.242779,204.150619 187.182256,194.605915 189.303301,184.530949 C191.424347,174.455983 196.72696,164.381018 206.271664,154.836314 L206.801926,154.306052 C213.695323,147.412655 222.709766,140.519257 233.845254,134.686382 C239.678129,131.504814 244.980743,128.323246 249.753095,125.671939 C275.20564,111.885144 286.871389,104.991747 294.825309,99.1588721 C301.188446,94.3865199 305.430536,89.0839065 313.384457,79.0089409 C318.156809,73.176066 323.989684,66.2826685 331.413343,57.7984869 L331.413343,57.7984869 L331.413343,57.7984869 C337.246217,50.9050894 344.669876,44.5419532 353.154058,39.2393398 L353.684319,38.7090784 C356.865887,36.588033 360.047455,34.997249 363.229023,32.8762036 C358.456671,31.2854195 353.684319,29.6946355 347.851444,28.6341128 C319.747593,22.801238 279.44773,25.4525447 242.329436,34.997249 L242.329436,34.4669876 Z" id="Shape"></path>
                                    <path d="M90.6746905,148.473177 C95.977304,143.700825 103.931224,143.700825 108.703576,149.003439 C113.475928,154.306052 113.475928,162.259972 108.173315,167.032325 C103.931224,171.274415 101.279917,174.986245 100.749656,178.167813 C100.749656,179.228336 100.749656,179.758597 100.749656,180.81912 C100.749656,181.879642 101.279917,182.409904 102.34044,183.470426 C104.991747,186.121733 110.29436,188.77304 117.718019,190.363824 C128.323246,192.484869 141.57978,192.484869 154.836314,190.363824 C168.623109,188.242779 182.940165,184.000688 195.136176,177.637552 C201.499312,174.455983 208.922971,177.10729 212.104539,183.470426 C215.286107,189.833563 212.634801,197.257221 206.271664,200.43879 C191.954608,207.332187 174.986245,212.634801 158.548143,215.286107 C142.110041,217.937414 125.671939,217.937414 112.415406,215.286107 C99.6891334,212.634801 90.1444292,207.862448 83.781293,201.499312 C80.0694635,197.787483 77.4181568,193.545392 76.3576341,188.77304 C74.7668501,184.000688 74.7668501,179.228336 75.8273728,173.925722 C77.4181568,165.971802 82.1905089,157.48762 90.6746905,149.5337 L90.6746905,148.473177 Z" id="Path"></path>
                                    <path d="M214.225585,83.2510316 C208.39271,86.9628611 200.43879,85.372077 196.72696,79.5392022 C193.015131,73.7063274 194.605915,65.7524072 200.43879,62.0405777 C215.286107,51.9656121 234.375516,44.5419532 253.464924,40.8301238 C272.554333,36.588033 292.174003,36.0577717 308.612105,39.2393398 C319.747593,41.3603851 328.231774,45.6024759 334.594911,50.9050894 C342.548831,57.2682256 346.26066,65.7524072 345.730399,75.2971114 C345.730399,82.1905089 339.897524,88.0233838 333.004127,87.4931224 C326.110729,87.4931224 320.277854,81.6602476 320.808116,74.7668501 C320.808116,73.176066 319.747593,71.585282 318.156809,69.9944979 C314.975241,67.3431912 310.202889,65.2221458 303.839752,64.1616231 C291.11348,61.5103164 275.20564,62.0405777 258.767538,65.7524072 C242.329436,69.4642366 226.421596,75.2971114 214.225585,83.2510316 Z" id="Path"></path>
                                </g>
                                <path d="M168.623109,106.05227 C158.017882,103.931224 150.063961,114.536451 154.836314,124.081155 C156.427098,127.792985 159.608666,130.444292 163.850757,130.974553 L188.77304,136.277166 C196.196699,137.86795 202.559835,133.095598 203.620358,126.732462 C203.090096,129.383769 203.620358,132.035076 204.68088,134.686382 C206.271664,138.398212 209.453232,141.049519 213.695323,141.57978 L238.617607,146.882393 C249.222834,149.003439 257.176754,138.398212 252.404402,128.853508 C250.813618,125.141678 247.63205,122.490371 243.389959,121.96011 L218.467675,116.657497 C211.044017,115.066713 204.68088,119.839065 203.620358,126.202201 C204.150619,123.550894 203.620358,120.899587 202.559835,118.248281 C200.969051,114.536451 197.787483,111.885144 193.545392,111.354883 L168.623109,106.05227 Z" id="Path"></path>
                            </g>
                            <g>
                                <g>
                                    <path d="M143.700825,57.2682256 C162.790234,35.5275103 197.257221,19.6196699 234.905777,10.0749656 C275.20564,1.5237811e-14 319.747593,-3.18156809 351.563274,3.71182944 C360.047455,5.30261348 367.471114,7.95392022 374.364512,10.605227 C381.257909,13.786795 387.621045,17.4986245 392.923659,21.7407153 C398.226272,25.9828061 399.286795,34.4669876 394.514443,39.7696011 C392.923659,41.8906465 390.802613,42.9511692 388.151307,44.0116919 C377.015818,48.2537827 366.410591,53.0261348 357.396149,58.8590096 C348.911967,64.1616231 342.018569,69.4642366 337.246217,75.2971114 L337.246217,75.2971114 C329.292297,84.3115543 323.989684,90.6746905 319.747593,96.5075653 C310.202889,107.643054 305.430536,114.00619 296.946355,120.369326 C287.401651,127.792985 275.20564,134.686382 248.692572,149.003439 C243.92022,151.654746 238.617607,154.836314 232.784732,158.017882 C221.649243,164.381018 213.165062,170.744154 207.862448,177.637552 C203.620358,182.940165 200.969051,188.242779 200.43879,192.484869 C199.908528,196.72696 200.969051,200.969051 203.090096,204.68088 C204.68088,207.862448 207.332187,211.044017 211.044017,213.695323 C216.34663,217.937414 217.407153,226.421596 212.634801,231.724209 C211.044017,233.845254 208.922971,234.905777 206.801926,235.9663 C182.940165,244.980743 157.48762,251.343879 132.565337,254.525447 C108.173315,257.707015 84.3115543,257.176754 63.6313618,252.934663 C44.0116919,248.692572 28.1038514,241.268913 16.9683631,231.193948 C8.48418157,223.240028 2.65130674,213.695323 1.0605227,203.090096 C-1.0605227,192.484869 1.0605227,181.349381 7.42365887,170.744154 C14.3170564,158.548143 27.0433287,146.882393 46.1327373,136.277166 C51.9656121,133.095598 57.2682256,129.91403 62.0405777,127.262724 C87.4931224,113.475928 99.1588721,106.582531 107.112792,100.749656 C113.475928,95.977304 117.718019,90.6746905 125.671939,80.5997249 C130.444292,74.7668501 136.277166,67.8734525 143.700825,59.389271 C143.700825,59.389271 143.700825,59.389271 144.231087,58.8590096 L143.700825,57.2682256 Z M241.268913,34.4669876 C207.862448,42.9511692 178.167813,56.7379642 162.790234,74.2365887 L162.790234,74.2365887 C154.836314,83.2510316 149.5337,89.6141678 145.291609,95.4470426 C135.746905,106.582531 130.974553,112.945667 122.490371,119.308803 C112.945667,126.732462 100.749656,133.62586 74.2365887,147.942916 C69.4642366,150.594223 64.1616231,153.775791 58.3287483,156.957359 C43.4814305,164.911279 33.9367263,173.925722 29.1643741,181.879642 C25.9828061,187.182256 24.9222834,192.484869 25.9828061,197.257221 C27.0433287,202.029574 29.6946355,206.801926 34.4669876,211.044017 C41.8906465,217.937414 53.5563961,223.770289 68.4037139,226.951857 C85.9023384,230.663686 107.112792,230.663686 129.383769,228.01238 C146.352132,225.891334 164.381018,222.179505 181.349381,216.876891 C181.349381,216.34663 180.81912,216.34663 180.81912,215.816369 C176.046768,207.332187 173.925722,197.787483 175.516506,187.712517 C176.577029,178.167813 180.81912,169.15337 188.242779,159.608666 C195.666437,150.594223 206.271664,142.110041 220.588721,134.156121 C226.421596,130.974553 231.724209,127.792985 236.496561,125.141678 C261.949106,111.354883 273.614856,104.461486 281.568776,98.6286107 C287.931912,93.8562586 292.174003,88.5536451 300.127923,78.4786795 C304.900275,72.6458047 310.73315,65.7524072 318.156809,57.2682256 L318.156809,57.2682256 L318.156809,57.2682256 C325.050206,49.3143054 334.064649,41.8906465 344.139615,36.0577717 C347.321183,33.9367263 351.033012,31.8156809 354.744842,30.2248968 C352.093535,29.6946355 349.442228,28.6341128 346.790922,28.1038514 C318.68707,22.2709766 278.387208,24.9222834 241.268913,34.4669876 Z" id="Shape"></path>
                                    <path d="M89.6141678,148.473177 C94.9167813,143.700825 102.870702,143.700825 107.643054,149.003439 C112.415406,154.306052 112.415406,162.259972 107.112792,167.032325 C102.870702,171.274415 100.219395,174.986245 99.6891334,178.167813 C99.6891334,179.228336 99.6891334,179.758597 99.6891334,180.81912 C99.6891334,181.879642 100.219395,182.409904 101.279917,183.470426 C103.931224,186.121733 109.233838,188.77304 116.657497,190.363824 C125.671939,191.954608 136.277166,192.484869 147.942916,190.894085 C159.608666,189.303301 171.804677,186.651994 182.940165,182.409904 C189.303301,179.758597 196.72696,183.470426 199.378267,189.833563 C202.029574,196.196699 198.317744,203.620358 191.954608,206.271664 C178.698074,211.044017 164.381018,214.755846 150.594223,216.34663 C136.807428,217.937414 123.550894,217.407153 111.885144,215.286107 C99.1588721,212.634801 89.6141678,207.862448 83.2510316,201.499312 C79.5392022,197.787483 76.8878955,193.545392 75.8273728,188.77304 C74.2365887,184.000688 74.2365887,179.228336 75.2971114,173.925722 C76.8878955,165.971802 81.6602476,157.48762 90.1444292,149.5337 L89.6141678,148.473177 Z" id="Path"></path>
                                    <path d="M212.634801,83.2510316 C206.801926,86.9628611 198.848006,85.372077 195.136176,79.5392022 C191.424347,73.7063274 193.015131,65.7524072 198.848006,62.0405777 C213.695323,51.9656121 232.784732,44.5419532 251.87414,40.8301238 C270.963549,36.588033 290.583219,36.0577717 307.02132,39.2393398 C313.914718,40.8301238 320.277854,42.9511692 325.050206,45.6024759 C330.883081,48.784044 335.655433,53.0261348 338.837001,57.2682256 C343.079092,63.1011004 341.488308,71.0550206 335.655433,74.7668501 C329.822558,79.0089409 321.868638,77.4181568 318.156809,71.585282 C317.096286,69.9944979 315.505502,68.9339752 313.384457,67.8734525 C310.202889,66.2826685 306.491059,65.2221458 302.248968,64.1616231 C289.522696,61.5103164 273.614856,62.0405777 257.176754,65.7524072 C240.738652,69.4642366 224.830812,75.2971114 212.634801,83.2510316 Z" id="Path"></path>
                                </g>
                                <path d="M167.032325,106.05227 C156.957359,103.931224 148.473177,114.536451 152.715268,123.550894 C154.306052,127.262724 157.48762,129.91403 161.729711,130.974553 L186.651994,136.277166 C193.545392,137.86795 199.908528,133.095598 201.499312,126.732462 C200.969051,128.853508 201.499312,131.504814 202.559835,134.156121 C204.150619,137.86795 207.332187,140.519257 211.574278,141.57978 L236.496561,146.882393 C246.571527,149.003439 255.055708,138.398212 250.813618,129.383769 C249.222834,125.671939 246.041265,123.020633 241.799175,121.96011 L216.876891,116.657497 C209.983494,115.066713 203.620358,119.839065 202.029574,126.202201 C202.559835,124.081155 202.029574,121.429849 200.969051,118.778542 C199.378267,115.066713 196.196699,112.415406 191.954608,111.354883 L167.032325,106.05227 Z" id="Path"></path>
                            </g>
                        </g>
                    </g>
                </g>
                <polygon id="Path-2" fill="#DC9A1F" points="37.4916396 300.759161 37.4916396 402.098238 138.19391 426.245154 651.16444 418.092219 816.411218 300.759161 807.770959 156.438086 631.188581 287.265153"></polygon>
                <g id="noun_Basil_2994240" transform="translate(640.000000, 224.000000) scale(-1, 1) rotate(-113.000000) translate(-640.000000, -224.000000) translate(525.000000, 127.000000)" fill="#457C1F" fill-rule="nonzero">
                    <g id="Group" transform="translate(0.750225, 0.294413)">
                        <path d="M101.448256,119.229495 C91.9854971,119.229495 82.9149766,116.981765 74.9133066,112.545069 C63.1853687,106.044282 54.7399786,95.2120851 51.1313823,82.0440119 C50.7906249,80.8099642 51.1215763,79.4877701 51.9992105,78.5548888 C59.2923993,70.8273993 71.1380088,68.1781142 83.6871966,71.4689082 C102.289118,76.3438866 117.476111,92.2812216 122.381547,112.070059 C122.852233,113.972549 121.744159,115.909319 119.863865,116.472475 C113.681202,118.313753 107.48383,119.229495 101.448256,119.229495 Z M58.8462278,82.1786799 C62.2096748,92.4844478 69.1204309,100.931799 78.482679,106.122634 C88.8966172,111.893766 101.480126,113.365319 114.257302,110.365898 C108.248695,91.6764403 93.3068513,81.586141 81.8216111,78.5744769 C72.6358705,76.167594 64.3964057,77.4873396 58.8462278,82.1786799 Z" id="Shape"></path>
                        <path d="M118.78766,116.900964 C117.86835,116.900964 116.946589,116.558173 116.233205,115.872591 C114.772116,114.462251 114.732892,112.138617 116.1425,110.679307 C120.942521,105.708837 127.169311,98.1821246 134.376697,89.4678866 C155.709581,63.680206 184.924012,28.3604858 217.602401,8.77242612 C219.340508,7.73181045 221.603236,8.29007015 222.647571,10.030959 C223.694358,11.7693993 223.128064,14.0269231 221.385053,15.0699873 C189.790223,34.011641 161.039125,68.7682045 140.046999,94.1445358 C132.741552,102.976302 126.42896,110.605851 121.430368,115.777099 C120.712081,116.526343 119.751096,116.900964 118.78766,116.900964 Z" id="Path"></path>
                        <path d="M182.504389,48.756553 C181.050654,48.756553 179.636143,48.6635097 178.265759,48.4627321 C176.257987,48.1689112 174.86554,46.3031485 175.159719,44.2953724 C175.453898,42.2900448 177.312129,40.8943955 179.332158,41.1955619 C186.664571,42.2753537 196.83336,39.1437127 205.798466,36.3842448 C208.014615,35.7011112 210.149865,35.0449112 212.142928,34.484203 C214.094316,33.9357373 216.129054,35.0644993 216.683091,37.0184082 C217.237128,38.9698687 216.099636,40.9996813 214.145797,41.553044 C212.204215,42.1015097 210.12535,42.7405701 207.965585,43.4065642 C199.735927,45.9383209 190.572249,48.756553 182.504389,48.756553 Z" id="Path"></path>
                        <path d="M174.061451,76.8262425 C167.736601,76.8262425 160.955774,75.7880754 154.476481,72.8351754 C152.628056,71.9928888 151.81416,69.8137172 152.659925,67.9675425 C153.50569,66.1238164 155.682615,65.315809 157.53104,66.15075 C175.713756,74.4413963 198.024785,64.505353 198.242968,64.4049642 C200.098747,63.5700231 202.273221,64.3780306 203.114083,66.2242052 C203.954944,68.0679313 203.145952,70.2446545 201.299979,71.086941 C200.581691,71.415041 188.508093,76.8262425 174.061451,76.8262425 Z" id="Path"></path>
                        <path d="M149.691168,100.20704 C145.050494,100.20704 139.98326,99.3255776 134.332571,96.9235918 C132.464534,96.1278269 131.594254,93.9706918 132.390989,92.1049291 C133.182821,90.2416149 135.335231,89.3674978 137.215525,90.1632627 C148.717926,95.0578291 157.008872,92.3399858 165.777859,89.4629896 C167.530676,88.8875903 169.258978,88.3219851 170.984828,87.8273866 C172.933764,87.2666784 174.973406,88.3905433 175.534797,90.3420037 C176.096189,92.2910157 174.970954,94.3257254 173.019566,94.8864336 C171.379518,95.356547 169.737019,95.8976672 168.072456,96.4436843 C162.55905,98.2531313 156.599473,100.20704 149.691168,100.20704 Z" id="Path"></path>
                        <path d="M178.61142,48.756553 C176.829185,48.756553 175.267585,47.4612925 174.983212,45.649397 C174.468398,42.3708455 173.196074,34.3030134 176.333984,27.8340567 C177.218972,26.0074701 179.420412,25.2484328 181.246774,26.1298955 C183.073135,27.0138067 183.838001,29.2101179 182.950561,31.0367045 C180.820214,35.4342239 181.830229,41.8517619 182.21021,44.2684388 L182.251885,44.5181866 C182.563225,46.5235142 181.190389,48.4015194 179.185069,48.7124799 C178.993853,48.7418619 178.800185,48.756553 178.61142,48.756553 Z" id="Path"></path>
                        <path d="M156.006212,73.1657239 C154.809884,73.1657239 153.633167,72.5829791 152.929589,71.5080843 C147.587788,63.3741425 148.259497,52.7818993 150.664411,45.5808388 C151.309153,43.6563119 153.388018,42.6107993 155.314891,43.2596537 C157.241764,43.9011627 158.283648,45.982394 157.638905,47.9069209 C155.775771,53.4748269 155.177607,61.5402104 159.07548,67.477841 C160.190909,69.1746567 159.717771,71.4517687 158.016435,72.563391 C157.398659,72.9698433 156.697532,73.1657239 156.006212,73.1657239 Z" id="Path"></path>
                        <path d="M135.722567,97.1782366 C134.366891,97.1782366 133.08231,96.4314418 132.457179,95.1263873 C131.535418,93.1994119 129.591385,85.6727 130.015493,79.8379067 C130.165034,77.812991 131.974235,76.3047104 133.947686,76.4393784 C135.972619,76.5862888 137.494995,78.3443172 137.350357,80.3667843 C137.031663,84.7594067 138.664357,90.9688216 139.108077,91.9874007 C139.90236,93.8237813 139.100723,96.00785 137.276813,96.8354455 C136.771805,97.0680537 136.239831,97.1782366 135.722567,97.1782366 Z" id="Path"></path>
                        <path d="M4.18530978,181.086139 C2.88111602,181.086139 1.61614613,180.388314 0.951791784,179.161612 C-0.0189990633,177.379099 0.645355279,175.148508 2.43249297,174.181348 C27.9500736,160.361972 56.0392694,144.348733 78.6077051,131.481826 C94.4026683,122.476216 108.045221,114.697307 117.032391,109.814984 C118.817077,108.850272 121.050387,109.506472 122.018726,111.286537 C122.989517,113.06905 122.330066,115.29964 120.545379,116.269249 C111.6244,121.114846 98.013716,128.874166 82.2530737,137.862637 C59.6527686,150.749131 31.5268005,166.784407 5.9356751,180.642959 C5.37673491,180.941677 4.77857086,181.086139 4.18530978,181.086139 Z" id="Path"></path>
                        <path d="M34.9049565,179.367287 C34.1376395,179.367287 33.362968,179.127333 32.7010652,178.632734 C31.0781774,177.415826 30.747226,175.111781 31.9656176,173.490869 C33.058983,172.034007 34.0886097,170.731401 35.0446916,169.524287 C39.3911869,164.017593 41.5730149,161.255677 41.4381828,154.801411 C41.3965074,152.774047 43.0095892,151.096819 45.0394246,151.055195 C47.0545511,150.888696 48.7509835,152.62224 48.7926589,154.652052 C48.9789723,163.736015 45.5566894,168.072322 40.8179553,174.073613 C39.8961943,175.239103 38.90334,176.495187 37.8491984,177.900631 C37.1260083,178.860446 36.0228369,179.367287 34.9049565,179.367287 Z" id="Path"></path>
                        <path d="M58.5765636,177.290952 C57.5395825,177.290952 56.5124073,176.857566 55.7843142,176.012831 C54.4605085,174.475169 54.6370159,172.153984 56.1765529,170.834238 C56.3187395,170.711813 70.9639529,157.793487 68.1422856,140.183822 C67.8211401,138.180943 69.1890727,136.29804 71.1919417,135.977286 C73.1751987,135.651634 75.0824595,137.02035 75.4060565,139.023229 C78.8871752,160.746387 61.702216,175.775326 60.9692199,176.404593 C60.2778991,176.99958 59.4247799,177.290952 58.5765636,177.290952 Z" id="Path"></path>
                        <path d="M86.329905,155.283767 C85.6802596,155.283767 85.0257112,155.112372 84.4349016,154.749993 C82.7016968,153.689789 82.1403051,151.45675 83.2018012,149.728104 C88.3499344,141.332172 89.72277,139.089339 90.5268594,126.592157 C90.6567884,124.567241 92.4120567,123.022233 94.4320862,123.161798 C96.4594701,123.291569 97.9965556,125.039803 97.8666265,127.06227 C96.9448655,141.376245 94.7679406,144.926581 89.5070387,153.508599 C88.8083634,154.649604 87.5826174,155.283767 86.329905,155.283767 Z" id="Path"></path>
                        <path d="M45.1129694,158.400717 C44.607962,158.400717 44.0931487,158.295431 43.6053018,158.075066 C37.4520567,155.303355 31.4042259,154.299467 26.5894955,155.251937 C24.593981,155.636352 22.6646568,154.350886 22.2675151,152.360249 C21.8752763,150.369613 23.1696641,148.43774 25.1627272,148.043531 C31.4777706,146.799689 39.0945564,147.984766 46.6279914,151.378398 C48.4813194,152.21089 49.3050207,154.387613 48.469062,156.236237 C47.8537375,157.595158 46.5176743,158.400717 45.1129694,158.400717 Z" id="Path"></path>
                        <path d="M71.7778483,143.276287 C70.7555761,143.276287 69.7406584,142.855143 69.0125652,142.027548 C65.0975325,137.576161 55.7647023,134.804451 49.8173826,135.137448 C47.7164539,135.230491 46.0592453,133.687931 45.9513796,131.663016 C45.843514,129.6381 47.4026629,127.909454 49.4300468,127.801719 C57.3459146,127.402613 68.9046996,130.776656 74.5382283,137.179503 C75.8791944,138.704923 75.7272019,141.02366 74.2023739,142.362993 C73.5036986,142.97512 72.6407735,143.276287 71.7778483,143.276287 Z" id="Path"></path>
                        <path d="M93.3289148,130.992125 C92.6449485,130.992125 91.9560792,130.801141 91.3505607,130.414277 C89.5021357,129.630754 78.6346715,126.873735 74.1925679,126.873735 C72.1627325,126.873735 70.5153299,125.230787 70.5153299,123.200974 C70.5153299,121.171161 72.1627325,119.528213 74.1925679,119.528213 C78.7646006,119.528213 93.4465864,122.552119 95.7436344,124.547653 C97.2758169,125.877193 97.4376154,128.198378 96.1040037,129.728695 C95.3808136,130.566084 94.3585414,130.992125 93.3289148,130.992125 Z" id="Shape"></path>
                        <path d="M118.696954,116.171309 C118.562122,116.171309 118.429742,116.163963 118.29491,116.149272 C116.774985,115.977877 115.507563,114.910328 115.130033,113.433878 C109.771072,92.5334179 93.1916312,80.5651134 79.1323244,77.9745925 C78.0070895,77.7664694 77.0387502,77.0466082 76.5239368,76.0280291 C64.4184692,52.2407791 64.9872153,25.2631239 78.0806343,2.01209701 C78.7106677,0.895577612 79.8751265,0.185510448 81.1572568,0.141437313 C81.6058798,0.126746269 82.0545029,0.116952239 82.5031259,0.116952239 C109.454829,0.116952239 132.594463,28.5343299 134.393858,64.2653993 C134.425727,64.8971142 134.293347,65.5288291 134.011425,66.0944343 C127.012415,80.0754119 123.141509,95.6552649 122.516379,112.398159 C122.491864,113.017631 122.312905,113.624861 121.99176,114.156187 C121.35192,115.390235 120.067338,116.171309 118.696954,116.171309 Z M82.3045551,71.1310142 C94.6429145,73.9761799 108.268307,82.8079463 116.544544,97.3961537 C118.366003,85.4572313 121.861831,74.1671634 126.995255,63.69 C125.075737,32.7408657 105.902617,8.15785075 83.4739168,7.47716567 C72.8736652,27.603897 72.4471056,50.5953821 82.3045551,71.1310142 Z" id="Shape"></path>
                        <path d="M35.9909675,192.851217 C22.5371792,192.851217 10.42926,188.478183 1.63820955,180.065111 C0.711545564,179.178751 0.316855346,177.873697 0.591422454,176.62251 C8.95836478,138.682887 38.8886311,111.981913 78.7033133,106.935539 C79.4068915,106.844944 80.1202757,106.962472 80.7601151,107.270984 C91.6275793,112.488754 104.698935,113.274725 117.566817,109.481987 C118.184593,109.298349 118.844044,109.281209 119.464271,109.433016 C121.378887,109.893336 122.773786,111.815414 122.396256,113.744838 C115.456082,149.382864 89.9139864,179.08326 57.3287542,189.408616 C50.0404684,191.717558 42.8428877,192.851217 35.9909675,192.851217 Z M8.25478656,176.142602 C19.7179633,185.95622 36.6553218,188.257817 55.1052509,182.405884 C76.8450823,175.515784 104.578812,154.605531 113.918996,117.944028 C101.558574,120.426815 89.2349231,119.197664 78.5807387,114.359413 C43.1836451,119.234392 16.4672849,142.74496 8.25478656,176.142602 Z" id="Shape"></path>
                        <path d="M118.824432,116.903877 C118.692051,116.905861 118.549865,116.898516 118.422387,116.883825 C116.500418,116.690393 115.056489,115.047444 115.112873,113.11802 C116.071406,81.1037851 128.316609,52.7010985 149.590657,33.1375239 C168.550496,15.7065993 193.450301,6.86503881 219.68862,8.25089403 C220.968299,8.31945224 222.122952,9.04910746 222.730922,10.1754209 C231.127282,25.7234433 230.254551,45.4069948 220.338266,64.1845985 C205.443,92.3914045 173.58341,112.966213 139.174267,116.604695 C138.838413,116.641422 138.502559,116.631628 138.174059,116.572864 C132.569948,115.625292 126.504957,115.654674 120.128626,116.66101 C119.714324,116.820163 119.273055,116.903877 118.824432,116.903877 Z M129.721314,108.539311 C132.866578,108.539311 135.928492,108.774368 138.889894,109.24693 C170.74213,105.721079 200.120811,86.7280067 213.834457,60.7566881 C222.189142,44.9344328 223.373213,28.568609 217.185647,15.4984761 C193.72732,14.7810634 171.553574,22.9272478 154.572089,38.5413799 C135.742179,55.8547761 124.50699,80.7169209 122.673274,108.921278 C125.063479,108.666634 127.416912,108.539311 129.721314,108.539311 Z" id="Shape"></path>
                        <path d="M113.450761,103.11097 C111.648915,103.11097 110.075057,101.786328 109.815199,99.9523955 C104.470946,62.3310784 87.7321584,20.4101821 78.2032089,5.81707761 C77.0951345,4.11781343 77.5731754,1.84315 79.2769624,0.733976119 C80.9733949,-0.375197761 83.255734,0.104709701 84.3662599,1.80397388 C94.5129854,17.3470993 111.533695,59.743006 117.098582,98.9215739 C117.382955,100.92935 115.985604,102.787767 113.975381,103.074243 C113.798873,103.098728 113.624817,103.11097 113.450761,103.11097 Z" id="Path"></path>
                        <path d="M99.089921,46.7193948 C98.4500816,46.7193948 97.8053392,46.5553448 97.2145296,46.2052082 C95.4690673,45.1694896 94.8929667,42.9168627 95.9299478,41.1710769 C101.426193,31.9230642 101.904234,25.2655724 101.906685,25.1994627 C102.036614,23.184341 103.740401,21.6001567 105.787397,21.7519642 C107.804975,21.8645955 109.354318,23.5761022 109.251356,25.5912239 C109.234195,25.9291179 108.761057,33.9724649 102.254797,44.9197418 C101.568379,46.0778858 100.345085,46.7193948 99.089921,46.7193948 Z" id="Path"></path>
                        <path d="M106.093834,68.8000351 C105.39761,68.8000351 104.694032,68.601706 104.068901,68.1903567 C102.37492,67.0713888 101.909137,64.7942769 103.029469,63.0999097 C108.260953,55.1936791 110.594773,49.0307858 110.594773,43.1249858 C110.594773,41.0951731 112.242176,39.4522246 114.272011,39.4522246 C116.301847,39.4522246 117.949249,41.0951731 117.949249,43.1249858 C117.949249,50.5586545 115.240351,57.9678381 109.163102,67.149741 C108.457072,68.2197388 107.28771,68.8000351 106.093834,68.8000351 Z" id="Path"></path>
                        <path d="M97.8617235,46.79285 C90.6960123,46.79285 80.8091449,41.8958351 79.6226228,41.2959507 C77.8134217,40.3777604 77.0902315,38.1692067 78.0070895,36.3597597 C78.926399,34.5527612 81.1376449,33.828003 82.9492975,34.7437448 C87.0285802,36.8029396 94.8782577,39.8905075 98.6192346,39.405703 C100.627007,39.1290216 102.477883,40.55895 102.742644,42.5716231 C103.004954,44.5818478 101.58554,46.4255739 99.572865,46.6900127 C99.0237308,46.7610194 98.4525331,46.79285 97.8617235,46.79285 Z" id="Path"></path>
                        <path d="M105.181879,68.8514537 C97.8935929,68.8514537 86.4181587,62.6395903 84.0622749,61.3198448 C82.2922976,60.3281993 81.6622642,58.0902634 82.6551184,56.3199925 C83.6504242,54.5521701 85.8935394,53.9204552 87.6610652,54.9121007 C93.0249297,57.9139709 102.137126,61.9491112 105.618244,61.4814463 C107.630919,61.214559 109.479344,62.6346933 109.744105,64.6449179 C110.006415,66.6551425 108.589453,68.4988687 106.576778,68.7633075 C106.133058,68.8245201 105.664823,68.8514537 105.181879,68.8514537 Z" id="Path"></path>
                    </g>
                </g>
            </g>
        </g>
    </g>
</svg>